<?xml version="1.0" encoding="UTF-8" standalone="no"?>
<svg
   xmlns:dc="http://purl.org/dc/elements/1.1/"
   xmlns:cc="http://creativecommons.org/ns#"
   xmlns:rdf="http://www.w3.org/1999/02/22-rdf-syntax-ns#"
   xmlns:svg="http://www.w3.org/2000/svg"
   xmlns="http://www.w3.org/2000/svg"
   xmlns:sodipodi="http://sodipodi.sourceforge.net/DTD/sodipodi-0.dtd"
   xmlns:inkscape="http://www.inkscape.org/namespaces/inkscape"
   version="1.1"
   x="0px"
   y="0px"
   viewBox="-260 352 90 112.5"
   style="enable-background:new -260 352 90 90;"
   xml:space="preserve"
   id="svg50"
   sodipodi:docname="noun_cozy_236262.svg"
   inkscape:export-filename="C:\Users\pgahl\Downloads\noun_c.png"
   inkscape:export-xdpi="96"
   inkscape:export-ydpi="96"
   inkscape:version="1.0.2-2 (e86c870879, 2021-01-15)"><metadata
     id="metadata56"><rdf:RDF><cc:Work
         rdf:about=""><dc:format>image/svg+xml</dc:format><dc:type
           rdf:resource="http://purl.org/dc/dcmitype/StillImage" /></cc:Work></rdf:RDF></metadata><defs
     id="defs54" /><sodipodi:namedview
     pagecolor="#ffffff"
     bordercolor="#666666"
     borderopacity="1"
     objecttolerance="10"
     gridtolerance="10"
     guidetolerance="10"
     inkscape:pageopacity="0"
     inkscape:pageshadow="2"
     inkscape:window-width="1920"
     inkscape:window-height="1013"
     id="namedview52"
     showgrid="false"
     inkscape:zoom="7.4844444"
     inkscape:cx="33.314664"
     inkscape:cy="61.068737"
     inkscape:window-x="-9"
     inkscape:window-y="-9"
     inkscape:window-maximized="1"
     inkscape:current-layer="svg50" /><g
     id="g44"><circle
       cx="-223.7"
       cy="393"
       r="1.9"
       id="circle38" /><circle
       cx="-207.2"
       cy="393"
       r="1.9"
       id="circle40" /><path
       d="M-186.3,391.7c0-0.1,0-0.1,0-0.2c1-4,1.9-9.9-2-14.7c-0.8-0.9-1.9-1.9-3.3-2.9c-2.5-6.7-7.9-11.3-15.1-13.4   c-0.1-4.6-4-8.2-8.8-8.2c-4.8,0-8.8,3.8-8.8,8.4c-6.1,2-11.1,6-14,11.5c-2.1,1.2-3.9,2.6-5,3.9c-3.9,4.8-3.1,10.6-2.1,14.5   c0.3,1.2,0.7,2.2,1.2,3.1c-7.7,8.6-8,22.6-4.9,32.5c-1.5,3-1.7,6.6-0.3,9.6c1.6,3.5,5,5.6,9.5,6c0,0,0.1,0,0.1,0h38.9   c0.1,0,0.2,0,0.4,0c11.8,0.4,19.8-7.7,21.4-21.7c0,0,0,0,0,0c0,0,0,0,0,0C-178.4,410.6-180.7,397.8-186.3,391.7z M-215.5,355   c3,0,5.5,2.1,6,4.9c-1.9-0.3-3.9-0.5-6-0.5c-2.1,0-4.1,0.2-6,0.6C-221.1,357.2-218.5,355-215.5,355z M-241.2,377.8   c1.6-2,6.3-5,10.6-5.5c0.7-0.1,1.3-0.7,1.2-1.5c-0.1-0.7-0.7-1.3-1.5-1.2c-1,0.1-2,0.3-2.9,0.6c4.2-5.1,10.9-8.2,18.3-8.2   c8.9,0,16.1,3.5,19.8,9.6c-1.7-0.7-3.5-1.2-5.3-1.4c-0.7-0.1-1.4,0.5-1.5,1.2c-0.1,0.7,0.5,1.4,1.2,1.5c4.4,0.4,9.2,3.5,10.8,5.5   c3.2,3.9,2.4,9,1.5,12.4c-0.1,0.2-0.1,0.5-0.2,0.7c0,0,0,0.1,0,0.1c-0.5,1.5-1.1,2.5-2,3.2c-0.1-6.1-10.5-10.8-24.3-10.8   c-12.2,0-22.3,4.4-23.8,10.1c0,0,0,0.1,0,0.2c0,0,0,0,0,0c-1.9-0.7-2.8-2-3.4-4.5C-243.6,386.6-244.3,381.7-241.2,377.8z    M-236.5,394.5c1.6-3.9,10.1-7.7,21.1-7.7c11.7,0,19.9,3.5,21.4,7c-4.2,7.3-12.3,11.8-21.4,11.8   C-224.4,405.7-232.4,401.4-236.5,394.5z M-201.2,438.9c-0.2,0-0.4,0-0.6,0.1h-37.9c-3.5-0.3-6-1.9-7.2-4.4   c-1.2-2.6-0.9-5.8,0.9-8.3c1.7-2.5,4.6-3.7,7.9-3.3c0,0,0.1,0,0.1,0h42.2c0.7,0,1.4-0.7,1.4-1.4c0-0.1,0-0.2,0-0.3   c-0.5-2.2-1.9-4.2-3.9-5.4c-2-1.3-5.7-2.4-11.5-0.9c0,0,0,0,0,0c0,0,0,0,0,0l-18.3,5.3c0,0,0,0,0,0h-4c-1.5-3.5-1.7-5.3-1.4-9.2   c0.1-0.7-0.5-1.4-1.2-1.5c-0.7-0.1-1.4,0.5-1.5,1.2c-0.4,3.9-0.1,6.1,1.2,9.4h-2.8c-3.6-0.3-6.8,0.8-9.1,3.1   c-2.2-8.8-1.7-20.3,4.6-27.6c1.3,1,2.9,1.5,4.7,1.8c4.8,6.8,13.1,10.9,22.3,10.9c8.5,0,16.2-3.6,21.2-9.6c3.3-0.5,5.5-1.8,6.8-4.2   c4.3,5.7,6.3,16.8,5.6,25.1C-182.6,425.8-185.9,439.9-201.2,438.9z M-209.2,417.6c4.9-1.3,7.8-0.4,9.3,0.6c0.9,0.6,1.6,1.3,2.1,2.1   h-20.7L-209.2,417.6z"
       id="path42" /></g><path
     style="fill:#5685fd;stroke:none;stroke-width:0.13361;fill-opacity:1"
     d="M 68.740586,41.885399 C 68.59981,40.696765 67.93386,39.540863 66.658352,38.271225 65.364711,36.98354 64.338453,36.267071 62.535642,35.39301 59.534472,33.937948 55.825239,32.928071 51.252248,32.320989 49.073543,32.031759 42.499773,31.91353 40.214162,32.12247 c -7.394219,0.675947 -13.539823,2.86426 -17.087383,6.084441 -0.946102,0.858793 -2.024354,2.393531 -2.303802,3.279134 -0.104346,0.330686 -0.202787,0.620472 -0.218758,0.64397 -0.08412,0.123773 -1.204859,-0.593564 -1.659849,-1.062399 -0.741417,-0.763981 -1.14089,-1.667012 -1.674383,-3.785043 -1.292567,-5.131646 -0.606131,-9.074163 2.06712,-11.872408 2.137802,-2.237759 5.896946,-4.22699 9.261255,-4.900788 1.680175,-0.336502 2.038514,-0.60909 2.038514,-1.550689 0,-0.519212 -0.06444,-0.666745 -0.436342,-0.999042 -0.51456,-0.459761 -1.139999,-0.504151 -2.636648,-0.187136 -0.514373,0.108953 -0.955387,0.198096 -0.980031,0.198096 -0.133206,0 1.195993,-1.384279 2.024285,-2.108167 3.185245,-2.783754 7.157551,-4.640034 11.648689,-5.443491 0.661372,-0.118318 2.254676,-0.24839 3.540677,-0.289048 7.027546,-0.2221815 13.21369,1.862574 17.46333,5.885212 1.057268,1.000793 2.793734,3.120639 2.663193,3.25118 -0.0334,0.0334 -0.638952,-0.124496 -1.345673,-0.350879 -1.463483,-0.468796 -3.574722,-0.867309 -4.012594,-0.75741 -0.85618,0.214887 -1.339106,1.147099 -1.008155,1.946083 0.230232,0.55583 0.644678,0.779191 1.763532,0.950438 3.257069,0.498512 7.231206,2.523084 9.550352,4.865304 1.764679,1.782235 2.630464,3.844608 2.804736,6.681122 0.199562,3.248126 -0.881658,7.833569 -2.228944,9.45294 -0.229272,0.275571 -0.46423,0.501039 -0.522128,0.501039 -0.0579,0 -0.140957,-0.301289 -0.184569,-0.66953 z"
     id="path58"
     transform="translate(-260,352)"
     inkscape:export-xdpi="96"
     inkscape:export-ydpi="96" /><path
     style="fill:#5685fd;fill-opacity:1;stroke-width:0.13361"
     d="m 38.659082,7.5757029 c 0,-0.5535484 0.949143,-2.1415815 1.678284,-2.807975 2.462745,-2.2508099 6.126378,-2.2261084 8.409184,0.056698 0.643455,0.6434546 1.363634,1.8602798 1.608721,2.7181168 0.08101,0.2835495 0.0562,0.3103177 -0.224314,0.2419836 -1.750631,-0.4264631 -7.36995,-0.5253627 -9.791599,-0.1723316 -1.791916,0.2612278 -1.680276,0.2636525 -1.680276,-0.036492 z"
     id="path895"
     transform="translate(-260,352)"
     inkscape:export-xdpi="96"
     inkscape:export-ydpi="96" /><a
     id="a899"
     transform="matrix(0.96984924,0,0,0.97535211,-7.291326,9.9702917)"
     inkscape:export-xdpi="96"
     inkscape:export-ydpi="96"><rect
       style="fill:#5685fd;fill-opacity:1"
       id="rect897"
       width="53.176956"
       height="37.945362"
       x="-241.82896"
       y="404.50891"
       ry="1.6033254" /></a><ellipse
     style="fill:#e6e6e6;fill-opacity:1"
     id="path906"
     cx="-215.64133"
     cy="422.27911"
     rx="6.8141332"
     ry="6.4133015"
     inkscape:export-xdpi="96"
     inkscape:export-ydpi="96" /><path
     style="fill:#ff4141;fill-opacity:1;stroke-width:0.13361"
     d="m 13.072678,70.855703 c -0.166345,-0.475549 -0.615427,-3.04232 -0.788955,-4.509353 -0.654311,-5.531652 -0.21098,-10.586909 1.331166,-15.179152 0.742715,-2.211679 2.296694,-5.082133 3.784038,-6.989738 l 0.252293,-0.323582 1.051092,0.546838 c 0.951055,0.494793 2.824407,1.102404 3.398871,1.102404 0.12468,0 0.324009,0.148526 0.442953,0.330058 1.118703,1.707356 3.770154,4.266845 5.990387,5.78262 l 1.223164,0.835065 -5.202658,0.002 c -5.682433,0.0022 -5.633531,-0.0041 -6.167322,0.787996 l -0.304634,0.452047 v 7.37976 7.379759 l -0.581652,0.146461 c -0.89008,0.224125 -2.905755,1.282399 -3.590376,1.885026 -0.66529,0.585612 -0.750382,0.623351 -0.838367,0.371822 z"
     id="path908"
     transform="translate(-260,352)"
     inkscape:export-xdpi="96"
     inkscape:export-ydpi="96" /><path
     style="fill:#ff4141;fill-opacity:1;stroke-width:0.13361"
     d="m 69.790317,68.889541 c 0,-16.746486 0.04649,-15.799663 -0.797289,-16.236001 -0.327939,-0.169584 -1.138823,-0.202677 -4.966191,-0.202677 H 59.45258 l 0.926737,-0.620391 c 1.672545,-1.119662 2.509082,-1.813727 4.082051,-3.386833 l 1.551989,-1.552123 1.181087,-0.291576 c 2.226611,-0.549684 3.985022,-1.622539 4.959554,-3.025961 0.279919,-0.403111 0.539006,-0.734685 0.575749,-0.73683 0.09113,-0.0053 0.942086,1.339558 1.517778,2.39875 1.135596,2.089339 2.43391,5.937709 3.076094,9.117938 0.789688,3.910703 1.082996,7.192449 0.979683,10.961452 -0.06423,2.343217 -0.130127,2.966792 -0.497243,4.705348 -0.832712,3.943483 -2.288365,7.55681 -4.039398,10.026876 -0.869135,1.226029 -2.427375,2.896178 -3.408499,3.65329 l -0.567845,0.438192 z"
     id="path910"
     transform="translate(-260,352)"
     inkscape:export-xdpi="96"
     inkscape:export-ydpi="96" /><path
     style="fill:#e9c6af;fill-opacity:1;stroke-width:0.13361"
     d="m 17.214605,86.227285 c -3.181047,-1.359595 -4.886195,-4.011889 -4.706934,-7.321461 0.121019,-2.234289 0.919382,-4.025816 2.502361,-5.615298 0.783583,-0.786802 1.960386,-1.548306 2.772417,-1.79402 l 0.300624,-0.09097 v 7.557994 c 0,4.156897 -0.04509,7.556033 -0.100208,7.553637 -0.05511,-0.0024 -0.400832,-0.132846 -0.76826,-0.289886 z"
     id="path912"
     transform="translate(-260,352)"
     inkscape:export-xdpi="96"
     inkscape:export-ydpi="96" /><path
     style="fill:#e9c6af;fill-opacity:1;stroke-width:0.13361"
     d="m 35.252016,51.932108 c -1.513977,-0.578417 -3.434362,-1.519336 -4.57384,-2.241017 -2.235017,-1.415533 -4.822395,-3.876432 -6.285009,-5.977777 l -0.827281,-1.188559 0.298231,-0.540744 c 0.461174,-0.836186 1.657123,-1.98274 2.941271,-2.81979 5.461818,-3.560193 15.13235,-5.091687 24.479882,-3.876808 4.985973,0.648017 9.517044,2.089562 12.091746,3.846948 0.822285,0.561259 1.950286,1.640492 2.291261,2.192203 l 0.281902,0.456126 -0.879738,1.292371 c -2.830687,4.158394 -7.061476,7.379666 -11.792946,8.979003 l -1.173885,0.396799 -7.757745,-0.0041 -7.757745,-0.0041 -1.336104,-0.51046 z m 1.927854,-9.201613 c 0.991302,-0.505477 1.357179,-1.705329 0.814468,-2.670953 -0.383165,-0.681751 -0.886712,-0.969847 -1.694054,-0.969225 -1.266744,9.76e-4 -1.993732,0.806163 -1.887245,2.090247 0.117375,1.415392 1.505596,2.19305 2.766831,1.549931 z m 16.549114,-0.02048 c 1.26575,-0.649847 1.336431,-2.60331 0.1218,-3.366253 -0.65258,-0.409903 -1.826296,-0.302515 -2.368217,0.216679 -0.222022,0.212711 -0.470239,0.608912 -0.551593,0.880447 -0.508432,1.696996 1.20533,3.086822 2.79801,2.269127 z"
     id="path914"
     transform="translate(-260,352)"
     inkscape:export-xdpi="96"
     inkscape:export-ydpi="96" /></svg>
